# xmcd
#
# Track frame offsets: 
#        150
#        16467
#        35965
#        49130
#        66512
#        81942
#        101472
#        115200
#        139652
#        156822
#
# Disc length: 2332 seconds
#
# Revision: 2
# Processed by: cddbd v1.5PL3 Copyright (c) Steve Scherf et al.
# Submitted via: ExactAudioCopy v0.95a3
#
DISCID=8a091a0a
DTITLE=Ian Tyson - Lost Herd
DYEAR=1999
DGENRE=Country
TTITLE0=Brahmas And Mustangs
TTITLE1=Lost Herd
TTITLE2=Summer's Gone
TTITLE3=Smugglers Cove
TTITLE4=Blue Mountains Of Mexico
TTITLE5=Roll On Owyhee
TTITLE6=Legends Of Cutting
TTITLE7=La Primera
TTITLE8=Elko Blues - The Roan Mare
TTITLE9=Somewhere Over The Rainbow
EXTD=
EXTT0=
EXTT1=
EXTT2=
EXTT3=
EXTT4=
EXTT5=
EXTT6=
EXTT7=
EXTT8=
EXTT9=
PLAYORDER=
